<?xml version="1.0" encoding="UTF-8" standalone="no"?>
<!-- Created with Inkscape (http://www.inkscape.org/) -->
<svg xmlns:dc="http://purl.org/dc/elements/1.1/" xmlns:cc="http://creativecommons.org/ns#" xmlns:rdf="http://www.w3.org/1999/02/22-rdf-syntax-ns#" xmlns:svg="http://www.w3.org/2000/svg" xmlns="http://www.w3.org/2000/svg" xmlns:sodipodi="http://sodipodi.sourceforge.net/DTD/sodipodi-0.dtd" xmlns:inkscape="http://www.inkscape.org/namespaces/inkscape" version="1.1" id="svg2" xml:space="preserve" width="109.09253" height="95.808929" viewBox="0 0 109.09253 95.808929" sodipodi:docname="Momen3.svg" inkscape:version="0.92.1 r15371"><metadata id="metadata8"><rdf:RDF><cc:Work rdf:about=""><dc:format>image/svg+xml</dc:format><dc:type rdf:resource="http://purl.org/dc/dcmitype/StillImage"/><dc:title/></cc:Work></rdf:RDF></metadata><defs id="defs6"><clipPath clipPathUnits="userSpaceOnUse" id="clipPath18"><path d="M 0,71.857 H 81.819 V 0 H 0 Z" id="path16" inkscape:connector-curvature="0"/></clipPath></defs><sodipodi:namedview pagecolor="#000000" bordercolor="#666666" borderopacity="1" objecttolerance="10" gridtolerance="10" guidetolerance="10" inkscape:pageopacity="0" inkscape:pageshadow="2" inkscape:window-width="1366" inkscape:window-height="715" id="namedview4" showgrid="false" inkscape:zoom="2.463236" inkscape:cx="-44.468156" inkscape:cy="15.983415" inkscape:window-x="-8" inkscape:window-y="-8" inkscape:window-maximized="1" inkscape:current-layer="g10"/><g id="g10" inkscape:groupmode="layer" inkscape:label="Vector Smart Object1" transform="matrix(1.3333333,0,0,-1.3333333,0,95.808933)"><g id="g12"><g id="g14" clip-path="url(#clipPath18)"><g id="g20" transform="translate(15.4701,7.6106)"><path d="m 0,0 c 0,0 -5.881,23.178 11.762,26.983 0,0 13.491,-13.491 29.923,0 0,0 14.53,-7.784 9.341,-26.983 0,0 -24.562,-17.124 -51.026,0" style="fill:#000000;fill-opacity:1;fill-rule:nonzero;stroke:none" id="path22" inkscape:connector-curvature="0"/></g><g id="g24" transform="translate(27.7509,48.6305)"><path d="m 0,0 c 0,-7.448 5.899,-13.486 13.176,-13.486 7.277,0 13.176,6.038 13.176,13.486 0,7.448 -5.899,13.486 -13.176,13.486 C 5.899,13.486 0,7.448 0,0" style="fill:#000000;fill-opacity:1;fill-rule:nonzero;stroke:none" id="path26" inkscape:connector-curvature="0"/></g><g id="g28" transform="translate(54.1462,62.2024)"><path d="m 0,0 c 0,-5.332 4.223,-9.655 9.433,-9.655 5.209,0 9.432,4.323 9.432,9.655 0,5.332 -4.223,9.654 -9.432,9.654 C 4.223,9.654 0,5.332 0,0" style="fill:#000000;fill-opacity:1;fill-rule:nonzero;stroke:none" id="path30" inkscape:connector-curvature="0"/></g><g id="g32" transform="translate(73.6698,53.8796)"><path d="m 0,0 c 0,0 -8.253,-8.202 -18.452,-0.545 0.589,-1.628 0.926,-3.38 0.926,-5.218 0,-5.124 -2.507,-9.643 -6.329,-12.361 0.742,-0.417 1.787,-0.952 3.067,-1.495 1.397,0.798 2.823,1.769 4.274,2.959 0,0 3.14,-1.711 5.98,-5.446 5.314,-0.374 11.6,0.602 18.08,4.794 0,0 3.773,14.871 -7.546,17.312" style="fill:#000000;fill-opacity:1;fill-rule:nonzero;stroke:none" id="path34" inkscape:connector-curvature="0"/></g><g id="g36" transform="translate(18.2431,31.739)"><path d="m 0,0 c 1.93,2.54 4.774,4.572 8.989,5.481 0,0 1.1,-1.098 3.049,-2.353 0.674,0.323 1.263,0.63 1.724,0.889 -3.822,2.717 -6.33,7.237 -6.33,12.361 0,1.837 0.338,3.59 0.927,5.217 C -1.84,13.939 -10.093,22.141 -10.093,22.141 -21.413,19.699 -17.639,4.829 -17.639,4.829 -11.34,0.753 -5.219,-0.289 0,0" style="fill:#000000;fill-opacity:1;fill-rule:nonzero;stroke:none" id="path38" inkscape:connector-curvature="0"/></g><g id="g40" transform="translate(8.4826,62.2024)"><path d="m 0,0 c 0,-5.332 4.223,-9.655 9.433,-9.655 5.209,0 9.432,4.323 9.432,9.655 0,5.332 -4.223,9.654 -9.432,9.654 C 4.223,9.654 0,5.332 0,0" style="fill:#000000;fill-opacity:1;fill-rule:nonzero;stroke:none" id="path42" inkscape:connector-curvature="0"/></g></g></g></g></svg>