<?xml version="1.0" encoding="UTF-8" standalone="no"?>
<!-- Created with Inkscape (http://www.inkscape.org/) -->
<svg xmlns:dc="http://purl.org/dc/elements/1.1/" xmlns:cc="http://creativecommons.org/ns#" xmlns:rdf="http://www.w3.org/1999/02/22-rdf-syntax-ns#" xmlns:svg="http://www.w3.org/2000/svg" xmlns="http://www.w3.org/2000/svg" xmlns:sodipodi="http://sodipodi.sourceforge.net/DTD/sodipodi-0.dtd" xmlns:inkscape="http://www.inkscape.org/namespaces/inkscape" version="1.1" id="svg2" xml:space="preserve" width="115.98573" height="94.066536" viewBox="0 0 115.98573 94.066536" sodipodi:docname="Momen2.svg" inkscape:version="0.92.1 r15371"><metadata id="metadata8"><rdf:RDF><cc:Work rdf:about=""><dc:format>image/svg+xml</dc:format><dc:type rdf:resource="http://purl.org/dc/dcmitype/StillImage"/><dc:title/></cc:Work></rdf:RDF></metadata><defs id="defs6"><clipPath clipPathUnits="userSpaceOnUse" id="clipPath26"><path d="M 0,70.55 H 86.989 V 0 H 0 Z" id="path24" inkscape:connector-curvature="0"/></clipPath></defs><sodipodi:namedview pagecolor="#000000" bordercolor="#666666" borderopacity="1" objecttolerance="10" gridtolerance="10" guidetolerance="10" inkscape:pageopacity="0" inkscape:pageshadow="2" inkscape:window-width="1366" inkscape:window-height="715" id="namedview4" showgrid="false" inkscape:zoom="2.5088625" inkscape:cx="57.992867" inkscape:cy="47.033268" inkscape:window-x="-8" inkscape:window-y="-8" inkscape:window-maximized="1" inkscape:current-layer="g10"/><g id="g10" inkscape:groupmode="layer" inkscape:label="Vector Smart Object" transform="matrix(1.3333333,0,0,-1.3333333,0,94.066533)"><path d="M 10.947,6.886 H 22.424 V 40.17 H 10.947 Z" style="fill:none;stroke:#000000;stroke-width:2;stroke-linecap:butt;stroke-linejoin:miter;stroke-miterlimit:10;stroke-dasharray:none;stroke-opacity:1" id="path12" inkscape:connector-curvature="0"/><path d="M 25.867,6.886 H 37.344 V 41.317 H 25.867 Z" style="fill:none;stroke:#000000;stroke-width:2;stroke-linecap:butt;stroke-linejoin:miter;stroke-miterlimit:10;stroke-dasharray:none;stroke-opacity:1" id="path14" inkscape:connector-curvature="0"/><path d="M 40.787,6.886 H 51.116 V 48.204 H 40.787 Z" style="fill:none;stroke:#000000;stroke-width:2;stroke-linecap:butt;stroke-linejoin:miter;stroke-miterlimit:10;stroke-dasharray:none;stroke-opacity:1" id="path16" inkscape:connector-curvature="0"/><path d="M 54.56,6.886 H 66.037 V 56.238 H 54.56 Z" style="fill:none;stroke:#000000;stroke-width:2;stroke-linecap:butt;stroke-linejoin:miter;stroke-miterlimit:10;stroke-dasharray:none;stroke-opacity:1" id="path18" inkscape:connector-curvature="0"/><g id="g20"><g id="g22" clip-path="url(#clipPath26)"><path d="M 69.48,6.886 H 79.809 V 68.862 H 69.48 Z" style="fill:none;stroke:#000000;stroke-width:2;stroke-linecap:butt;stroke-linejoin:miter;stroke-miterlimit:10;stroke-dasharray:none;stroke-opacity:1" id="path28" inkscape:connector-curvature="0"/><g id="g30" transform="translate(83.2527,1.8571)"><path d="m 0,0 c 0,0.876 -0.71,1.586 -1.586,1.586 h -71.429 c -0.876,0 -1.586,-0.71 -1.586,-1.586 v -0.271 c 0,-0.876 0.71,-1.586 1.586,-1.586 h 71.429 c 0.876,0 1.586,0.71 1.586,1.586 z" style="fill:#000000;fill-opacity:1;fill-rule:nonzero;stroke:none" id="path32" inkscape:connector-curvature="0"/></g><g id="g34" transform="translate(0.1167,29.584)"><path d="M 0,0 C 15.129,-7.143 32.185,-7.154 47.473,-0.449 63.824,6.723 75.742,19.252 85.908,33.582 86.5,34.417 85.149,35.457 84.491,34.675 74.389,22.672 62.134,11.372 48.207,3.991 32.988,-4.074 16.436,-4.587 0.181,0.428 -0.07,0.506 -0.242,0.114 0,0" style="fill:#000000;fill-opacity:1;fill-rule:nonzero;stroke:none" id="path36" inkscape:connector-curvature="0"/></g><g id="g38" transform="translate(85.0123,63.7873)"><path d="M 0,0 C -1.014,0.395 -1.871,0.219 -2.928,0.034 -4.721,-0.28 -6.464,-0.758 -8.279,-0.952 l 0.326,-2.402 c 1.344,0.31 2.618,1.074 3.912,1.547 0.725,0.265 3.376,1.573 3.54,0.301 0.335,-2.606 -1.908,-6.16 -0.397,-8.537 0.286,-0.451 0.897,-0.542 1.288,-0.166 1.209,1.159 1.333,3.069 1.488,4.642 0.181,1.822 0.222,4.051 -0.845,5.641 -0.913,1.36 -2.687,0.947 -4.02,0.617 -1.893,-0.467 -3.736,-1.165 -5.617,-1.686 -1.558,-0.432 -0.869,-2.589 0.651,-2.359 2.465,0.372 6.513,0.917 8.023,3.182 C 0.116,-0.104 0.066,-0.026 0,0" style="fill:#000000;fill-opacity:1;fill-rule:nonzero;stroke:none" id="path40" inkscape:connector-curvature="0"/></g><text transform="matrix(1,0,0,-1,19.8037,46.6113)" style="font-variant:normal;font-weight:normal;font-stretch:normal;font-size:28.60020065px;font-family:'Myriad Pro';-inkscape-font-specification:Righteous-Regular;writing-mode:lr-tb;fill:#000000;fill-opacity:1;fill-rule:nonzero;stroke:none" id="text44"><tspan x="0" y="0" id="tspan42">$</tspan></text>
</g></g></g></svg>