<?xml version="1.0" encoding="UTF-8" standalone="no"?>
<!-- Created with Inkscape (http://www.inkscape.org/) -->
<svg xmlns:dc="http://purl.org/dc/elements/1.1/" xmlns:cc="http://creativecommons.org/ns#" xmlns:rdf="http://www.w3.org/1999/02/22-rdf-syntax-ns#" xmlns:svg="http://www.w3.org/2000/svg" xmlns="http://www.w3.org/2000/svg" xmlns:sodipodi="http://sodipodi.sourceforge.net/DTD/sodipodi-0.dtd" xmlns:inkscape="http://www.inkscape.org/namespaces/inkscape" version="1.1" id="svg2" xml:space="preserve" width="134.54533" height="105.9488" viewBox="0 0 134.54533 105.9488" sodipodi:docname="Momen.svg" inkscape:version="0.92.1 r15371"><metadata id="metadata8"><rdf:RDF><cc:Work rdf:about=""><dc:format>image/svg+xml</dc:format><dc:type rdf:resource="http://purl.org/dc/dcmitype/StillImage"/><dc:title/></cc:Work></rdf:RDF></metadata><defs id="defs6"><clipPath clipPathUnits="userSpaceOnUse" id="clipPath18"><path d="M 0,79.462 H 100.909 V 0 H 0 Z" id="path16" inkscape:connector-curvature="0"/></clipPath></defs><sodipodi:namedview pagecolor="#000000" bordercolor="#666666" borderopacity="1" objecttolerance="10" gridtolerance="10" guidetolerance="10" inkscape:pageopacity="0" inkscape:pageshadow="2" inkscape:window-width="1366" inkscape:window-height="715" id="namedview4" showgrid="false" inkscape:zoom="2.227491" inkscape:cx="67.263597" inkscape:cy="52.928615" inkscape:window-x="-8" inkscape:window-y="-8" inkscape:window-maximized="1" inkscape:current-layer="g10"/><g id="g10" inkscape:groupmode="layer" inkscape:label="Vector Smart Object" transform="matrix(1.3333333,0,0,-1.3333333,0,105.9488)"><g id="g12"><g id="g14" clip-path="url(#clipPath18)"><g id="g20" transform="translate(12.1747,70.3779)"><path d="m 0,0 c 0.845,0.017 1.69,-0.013 2.536,-0.059 -9.328,0.865 -17.443,-0.544 -13.835,-9.321 3.082,-7.498 14.689,-13.584 21.118,-17.34 12.819,-7.489 27.336,-12.081 41.768,-15.211 10.212,-2.215 25.157,-4.964 35.004,-0.296 6.169,2.924 -2.723,10.819 -4.867,12.524 -9.286,7.385 -20.276,13.423 -30.727,18.912 -6.38,3.35 -13.1,6.218 -19.943,8.477 -6.456,2.13 -12.942,1.795 -19.594,2.525 -0.171,0.018 -0.209,-0.276 -0.039,-0.3 10.336,-1.428 19.143,-2.506 28.841,-6.871 9.562,-4.305 18.66,-9.593 27.478,-15.247 5.721,-3.669 11.919,-7.149 16.781,-11.937 3.014,-2.453 2.392,-5.089 -1.868,-7.91 -2.28,-0.566 -5.529,-0.46 -7.897,-0.589 -6.716,-0.368 -13.515,0.498 -20.127,1.543 -19.698,3.112 -38.934,11.215 -55.266,22.533 -2.578,1.787 -4.96,3.766 -7.181,5.975 -2.725,2.711 -5.809,7.353 -0.33,11.016 C -5.851,-0.039 -2.639,-0.054 0,0" style="fill:#000000;fill-opacity:1;fill-rule:nonzero;stroke:none" id="path22" inkscape:connector-curvature="0"/></g><g id="g24" transform="translate(35.2781,66.1321)"><path d="M 0,0 C -1.747,0.493 -6.693,1.884 -12.345,2.974 -8.189,2.048 -4.076,0.786 -0.072,-0.276 0.105,-0.323 0.177,-0.05 0,0" style="fill:#000000;fill-opacity:1;fill-rule:nonzero;stroke:none" id="path26" inkscape:connector-curvature="0"/></g><g id="g28" transform="translate(14.7103,70.319)"><path d="M 0,0 C 2.727,-0.253 5.551,-0.698 8.223,-1.213 5.495,-0.605 2.749,-0.149 0,0" style="fill:#000000;fill-opacity:1;fill-rule:nonzero;stroke:none" id="path30" inkscape:connector-curvature="0"/></g><path d="m 42.325,8.763 h 16.359 v 4.164 H 42.325 Z" style="fill:#000000;fill-opacity:1;fill-rule:nonzero;stroke:none" id="path32" inkscape:connector-curvature="0"/><g id="g34" transform="translate(50.5056)"><path d="M 0,0 C 3.906,0 7.072,3.167 7.072,7.073 H -7.072 C -7.072,3.167 -3.908,0 0,0" style="fill:#000000;fill-opacity:1;fill-rule:nonzero;stroke:none" id="path36" inkscape:connector-curvature="0"/></g><g id="g38" transform="translate(54.6694,49.6218)"><path d="m 0,0 c -0.442,-0.686 -1.208,-1.143 -2.082,-1.143 -0.875,0 -1.641,0.457 -2.082,1.143 -0.25,0.386 -0.399,0.844 -0.399,1.337 0,1.367 1.114,2.48 2.481,2.48 1.367,0 2.48,-1.113 2.48,-2.48 C 0.398,0.844 0.249,0.387 0,0 m -2.082,6.613 c -2.91,0 -5.277,-2.367 -5.277,-5.276 0,-2.17 1.319,-4.037 3.195,-4.847 v -24.908 c 2.037,-0.142 2.127,-0.142 4.164,0 V -3.51 c 1.876,0.81 3.195,2.677 3.195,4.847 0,2.909 -2.368,5.276 -5.277,5.276" style="fill:#000000;fill-opacity:1;fill-rule:nonzero;stroke:none" id="path40" inkscape:connector-curvature="0"/></g><g id="g42" transform="translate(59.8933,60.4664)"><path d="M 0,0 C 0,1.368 1.113,2.48 2.48,2.48 3.847,2.48 4.96,1.368 4.96,0 4.96,-0.43 4.839,-0.828 4.646,-1.181 4.224,-1.951 3.417,-2.479 2.48,-2.479 1.658,-2.479 0.933,-2.073 0.482,-1.455 0.183,-1.045 0,-0.545 0,0 m -19.627,-18.916 c 0,1.367 1.113,2.48 2.481,2.48 1.365,0 2.478,-1.113 2.478,-2.48 0,-0.514 -0.157,-0.992 -0.427,-1.389 -0.446,-0.657 -1.199,-1.091 -2.051,-1.091 -0.898,0 -1.677,0.483 -2.113,1.197 -0.229,0.376 -0.368,0.812 -0.368,1.283 m 12.321,37.911 c -16.091,0 -29.182,-13.091 -29.182,-29.182 0,-11.829 7.089,-22.015 17.229,-26.591 v -9.071 H 0.482 v 4.164 h -15.577 v 17.909 c 1.893,0.802 3.224,2.679 3.224,4.86 0,2.91 -2.368,5.276 -5.275,5.276 -2.911,0 -5.277,-2.366 -5.277,-5.276 0,-2.158 1.304,-4.016 3.164,-4.832 v -7.348 c -7.252,4.162 -12.156,11.967 -12.156,20.909 0,13.295 10.815,24.11 24.109,24.11 13.293,0 24.109,-10.815 24.109,-24.11 0,-8.942 -4.907,-16.747 -12.157,-20.909 V -4.805 C 6.477,-3.977 7.757,-2.137 7.757,0 7.757,2.909 5.389,5.276 2.48,5.276 -0.43,5.276 -2.797,2.909 -2.797,0 c 0,-2.202 1.358,-4.091 3.279,-4.881 v -33.4 c 12.444,3.461 21.394,14.831 21.394,28.094 0,16.091 -13.093,29.182 -29.182,29.182" style="fill:#000000;fill-opacity:1;fill-rule:nonzero;stroke:none" id="path44" inkscape:connector-curvature="0"/></g><g id="g46" transform="translate(92.4561,58.3054)"><path d="m 0,0 c -0.585,-0.61 -1.205,-1.186 -1.835,-1.751 7.207,5.983 11.95,12.718 3.192,16.373 -7.481,3.123 -19.992,-0.781 -27.194,-2.671 -14.36,-3.769 -27.872,-10.788 -40.29,-18.779 -8.787,-5.655 -21.299,-14.278 -24.961,-24.542 -2.294,-6.43 9.575,-5.725 12.297,-5.414 11.788,1.344 23.829,4.845 35.1,8.354 6.881,2.142 13.661,4.867 20.096,8.108 6.071,3.058 10.421,7.882 15.64,12.069 0.135,0.108 -0.047,0.343 -0.184,0.239 -8.318,-6.298 -15.308,-11.763 -25.252,-15.534 -9.805,-3.717 -19.978,-6.411 -30.211,-8.648 -6.64,-1.452 -13.484,-3.374 -20.307,-3.426 -3.866,-0.397 -5.29,1.908 -4.272,6.915 1.212,2.011 3.584,4.234 5.167,6 4.489,5.009 9.909,9.204 15.323,13.141 16.13,11.727 35.461,19.6 55.013,23.145 3.087,0.56 6.17,0.845 9.302,0.853 C 0.468,14.442 5.931,13.34 4.648,6.876 4.109,4.165 1.828,1.904 0,0" style="fill:#000000;fill-opacity:1;fill-rule:nonzero;stroke:none" id="path48" inkscape:connector-curvature="0"/></g><g id="g50" transform="translate(73.1173,44.971)"><path d="M 0,0 C 1.584,0.887 6.065,3.401 10.832,6.626 7.238,4.342 3.438,2.326 -0.144,0.246 -0.303,0.154 -0.16,-0.09 0,0" style="fill:#000000;fill-opacity:1;fill-rule:nonzero;stroke:none" id="path52" inkscape:connector-curvature="0"/></g><g id="g54" transform="translate(90.6215,56.554)"><path d="M 0,0 C -2.107,-1.749 -4.418,-3.432 -6.672,-4.956 -4.313,-3.457 -2.049,-1.838 0,0" style="fill:#000000;fill-opacity:1;fill-rule:nonzero;stroke:none" id="path56" inkscape:connector-curvature="0"/></g></g></g></g></svg>